<svg xmlns="http://www.w3.org/2000/svg" width="20" height="20" viewBox="0 0 20 20">
  <path d="M17.7375774,5.8080553 L16.3028552,7.24277756 C16.2060536,7.33968688 16.0746978,7.39413903 15.9377235,7.39413903 C15.8007492,7.39413903 15.6693934,7.33968688 15.5725918,7.24277756 L12.7521756,4.42236132 C12.6552663,4.32555976 12.6008141,4.19420397 12.6008141,4.05722967 C12.6008141,3.92025537 12.6552663,3.78889958 12.7521756,3.69209802 L13.9933652,2.45090844 C14.5969428,1.85231903 15.5702557,1.85231903 16.1738334,2.45090844 L17.5440447,3.8211198 C18.0673392,4.35571579 18.1478726,5.18252525 17.7375774,5.8080553 Z M7.9680478,15.5775849 L14.8423285,8.70846505 C14.9392379,8.61166348 14.99369,8.48030769 14.99369,8.34333339 C14.99369,8.20635909 14.9392379,8.0750033 14.8423285,7.97820174 L12.0219123,5.15262463 C11.9251107,5.05571531 11.793755,5.00126316 11.6567807,5.00126316 C11.5198064,5.00126316 11.3884506,5.05571531 11.291649,5.15262463 L4.41736825,12.0269054 C4.32045894,12.1237069 4.26600678,12.2550627 4.26600678,12.392037 C4.26600678,12.5290113 4.32045894,12.6603671 4.41736825,12.7571687 L7.23778449,15.5775849 C7.33458606,15.6744942 7.46594184,15.7289464 7.60291614,15.7289464 C7.73989044,15.7289464 7.87124623,15.6744942 7.9680478,15.5775849 Z M3.74645497,13.5442016 C3.68357664,13.481599 3.59294497,13.4556922 3.50647975,13.4756054 C3.42001454,13.4955186 3.34984452,13.5584585 3.32068307,13.6422581 L2.03046522,17.3090573 C1.96483984,17.4968857 2.01303022,17.7057106 2.15432613,17.8457879 C2.249399,17.9414558 2.37814578,17.9961037 2.5130067,17.9980336 C2.57174393,17.9974118 2.63004323,17.9878403 2.68589589,17.9696488 L6.35269504,16.679431 C6.43649467,16.6502695 6.49943458,16.5800995 6.51934778,16.4936343 C6.53926098,16.4071691 6.51335419,16.3165374 6.4507516,16.2536591 L3.74645497,13.5442016 Z"/>
</svg>
