<svg viewBox="0 0 64 64" xmlns="http://www.w3.org/2000/svg">
  <path d="M12.12 25.42a21.46 21.46 0 0113.3-13.34L22.65 1.75a32.12 32.12 0 00-20.9 20.9zM28.07 11.4c.86-.19 1.73-.3 2.61-.37V0c-1.8.09-3.55.35-5.26.75zM52.6 28.08c.18.85.3 1.72.37 2.6H64c-.08-1.8-.34-3.55-.74-5.26zM25.42 51.91A21.45 21.45 0 0112.1 38.58L1.75 41.35a32.1 32.1 0 0020.9 20.9zm26.5-13.33a21.46 21.46 0 01-13.34 13.3l2.76 10.37a32.12 32.12 0 0020.9-20.9zM38.58 12.1a21.48 21.48 0 0113.31 13.32l10.36-2.77a32.14 32.14 0 00-20.9-20.9zM64 33.32H52.98c-.07.89-.19 1.77-.38 2.63l10.65 2.63c.4-1.7.66-3.47.75-5.26M33.32 0v11.02c.9.07 1.77.2 2.64.38L38.58.75C36.88.34 35.1.08 33.32 0m-2.64 64V52.96c-.87-.06-1.72-.18-2.56-.36l-2.7 10.67c1.71.4 3.47.64 5.26.73M11.4 35.92c-.18-.85-.3-1.72-.37-2.6H0c.08 1.8.34 3.55.74 5.26zM0 30.68h11.04c.06-.87.18-1.73.36-2.57L.73 25.42C.33 27.13.08 28.9 0 30.68M35.91 52.6c-.84.18-1.71.3-2.6.36V64a28.8 28.8 0 005.27-.73zm-9.97-16.38s2.77 2.56 5.84 2.56c1.23 0 2.57-.48 2.57-1.97 0-2.76-11.11-3-11.11-10.43 0-3.87 2.73-6.63 6.53-7.35v-3.25h3.72v3.14c4.17.49 6.26 2.7 6.26 2.7l-2.53 4.93s-2.46-2.17-5.4-2.17c-1.23 0-2.6.55-2.6 1.93 0 2.94 11.1 2.73 11.1 10.36 0 3.66-2.45 6.84-6.83 7.53v3.14h-3.72V44.2c-4.51-.66-6.98-3.38-6.98-3.38z"/>
</svg>
